<?xml version="1.0" standalone="no"?>
<!DOCTYPE svg PUBLIC "-//W3C//DTD SVG 20010904//EN"
 "http://www.w3.org/TR/2001/REC-SVG-20010904/DTD/svg10.dtd">
<svg version="1.0" xmlns="http://www.w3.org/2000/svg"
 width="460.000000pt" height="460.000000pt" viewBox="0 0 460.000000 460.000000"
 preserveAspectRatio="xMidYMid meet">
<metadata>
Created by potrace 1.14, written by Peter Selinger 2001-2017
</metadata>
<g transform="translate(0.000000,460.000000) scale(0.100000,-0.100000)"
fill="#000000" stroke="none">
<path d="M2000 4230 c-36 -5 -110 -18 -165 -30 -152 -32 -246 -49 -285 -51
l-35 -2 35 -7 c24 -5 28 -8 12 -9 -69 -4 -325 -101 -309 -118 3 -2 18 2 34 10
16 9 47 18 68 21 l40 7 -49 -21 c-69 -29 -141 -80 -213 -149 -71 -69 -81 -85
-25 -44 20 15 0 -8 -44 -52 -69 -67 -114 -129 -114 -154 0 -3 14 11 31 32 47
58 77 68 34 12 -64 -84 -108 -206 -135 -370 -26 -166 -30 -196 -36 -310 -12
-219 22 -392 117 -586 l41 -84 -53 -45 c-136 -117 -134 -115 -121 -144 6 -14
27 -36 46 -48 19 -12 44 -42 55 -66 12 -24 39 -67 60 -96 79 -107 145 -157
238 -181 31 -8 57 -16 59 -17 9 -10 84 -225 84 -243 0 -46 34 -118 74 -159 23
-23 71 -86 106 -141 35 -55 77 -118 93 -140 50 -68 200 -208 259 -243 127 -75
288 -122 418 -122 l69 0 71 -88 c40 -48 85 -103 101 -122 22 -26 29 -44 27
-69 -3 -32 -8 -36 -68 -62 -49 -21 -65 -32 -63 -46 1 -10 21 -52 43 -93 40
-71 42 -78 36 -137 l-5 -63 1034 0 1035 0 0 519 0 519 -72 30 c-126 52 -201
66 -338 67 -69 0 -156 -6 -193 -14 l-69 -14 -36 36 c-47 44 -92 67 -133 67
-18 0 -71 -18 -117 -41 l-84 -41 -40 39 c-22 21 -64 66 -93 101 l-53 63 53
103 c28 56 70 161 93 232 38 122 82 296 82 327 0 7 34 44 76 82 151 136 199
234 176 365 -29 170 -144 436 -228 530 -12 14 -38 72 -57 130 -39 115 -119
330 -139 370 -31 62 -73 112 -145 172 -98 81 -114 98 -108 108 7 12 -102 115
-205 194 -106 82 -251 167 -352 207 -56 22 -62 17 -15 -12 27 -17 28 -19 7
-14 -14 4 -43 15 -65 25 -165 74 -359 102 -545 80z m-573 -176 c-3 -3 -12 -4
-19 -1 -8 3 -5 6 6 6 11 1 17 -2 13 -5z m897 -239 c141 -27 237 -88 285 -183
19 -38 44 -157 56 -271 4 -36 16 -89 26 -120 11 -30 19 -57 19 -61 0 -4 -26
-12 -57 -19 -32 -7 -76 -19 -98 -27 -44 -15 -109 -19 -101 -6 15 25 -132 -31
-302 -114 -143 -70 -206 -106 -244 -141 -54 -50 -87 -110 -88 -155 0 -23 -9
-31 -62 -58 -35 -18 -69 -37 -75 -42 -9 -7 -23 -2 -48 20 -19 17 -53 37 -75
43 -40 12 -43 11 -174 -54 -155 -77 -226 -130 -252 -185 -11 -22 -27 -45 -36
-51 -14 -9 -22 0 -51 62 -63 134 -87 244 -87 404 0 286 91 555 216 639 24 16
44 32 44 35 0 11 223 148 260 160 426 130 643 162 844 124z m-774 -55 c-14 -4
-32 -8 -40 -9 -13 -1 -13 0 0 9 8 5 26 9 40 9 l25 -1 -25 -8z m1508 -784 c39
-37 57 -64 122 -180 107 -194 107 -554 -1 -772 -38 -78 -170 -254 -241 -322
l-34 -32 -40 42 c-22 24 -61 71 -88 105 -64 82 -94 95 -214 94 -52 0 -115 -3
-139 -7 -44 -6 -44 -6 -31 15 7 11 16 21 19 21 3 0 14 18 24 39 17 38 17 97 0
147 -6 20 1 24 91 54 140 46 195 75 253 131 91 89 121 187 121 397 0 124 -12
228 -36 305 -5 17 0 17 73 11 74 -6 80 -8 121 -48z m522 -18 c19 -17 21 -24
10 -26 -24 -5 -61 -59 -88 -125 -20 -49 -27 -84 -30 -164 -3 -72 -1 -103 7
-103 24 0 82 -47 97 -78 14 -30 14 -40 -2 -113 -9 -44 -15 -82 -12 -84 9 -9
52 12 81 39 23 21 28 33 25 63 -3 35 -1 37 37 50 48 16 67 42 76 103 l6 45 2
-43 c0 -25 -11 -77 -26 -120 -19 -56 -26 -95 -26 -145 l1 -68 -53 -53 c-29
-28 -67 -63 -84 -76 -26 -21 -34 -36 -43 -90 l-12 -65 -7 70 c-8 78 -53 235
-124 430 -92 256 -88 240 -69 298 24 73 91 194 131 235 13 13 63 42 74 42 3 0
16 -10 29 -22z m190 -362 c-1 -11 -28 19 -81 89 -20 26 -12 20 25 -19 31 -33
56 -64 56 -70z m-1973 -54 c-9 -10 -23 -34 -32 -55 -18 -43 -32 -47 -41 -12
-7 30 9 53 51 71 40 17 41 17 22 -4z m139 -70 c60 -59 104 -110 171 -198 55
-72 67 -83 107 -93 86 -21 150 -122 97 -151 -11 -5 -56 -10 -101 -10 -99 0
-135 -14 -183 -71 -35 -43 -37 -44 -93 -42 -92 4 -122 -27 -90 -89 15 -28 15
-28 -19 -28 -25 0 -39 7 -55 28 -20 24 -21 34 -14 97 4 39 6 120 3 180 -9 250
-6 337 16 375 23 39 78 64 106 49 10 -5 34 -26 55 -47z m-280 -690 c4 -32 14
-51 40 -74 25 -23 34 -40 34 -62 l0 -31 19 30 c10 17 29 39 43 50 46 38 87 65
98 65 6 0 8 5 5 10 -3 6 1 10 9 10 8 0 34 13 58 29 51 34 85 43 127 35 41 -8
33 -17 -37 -43 -63 -23 -98 -52 -89 -75 7 -19 99 -48 123 -40 10 4 36 21 57
37 32 25 59 33 175 54 203 36 261 39 308 17 l38 -18 -29 -7 c-77 -18 -167 -29
-246 -28 -108 0 -165 -14 -209 -53 -37 -33 -88 -58 -117 -58 -42 0 -93 -80
-119 -187 -4 -15 -20 -44 -36 -63 -27 -33 -38 -87 -21 -103 4 -4 49 36 100 88
100 101 127 121 258 190 79 42 195 75 263 75 16 0 46 7 65 15 20 8 66 15 102
15 78 0 80 -2 80 -110 0 -68 -3 -81 -37 -142 -122 -215 -408 -366 -625 -328
-137 23 -219 107 -225 228 -2 50 -12 53 -34 10 -14 -26 -15 -38 -5 -64 9 -24
9 -38 0 -58 -10 -21 -9 -29 4 -44 26 -29 21 -33 -32 -26 -46 6 -50 5 -71 -24
-13 -17 -28 -33 -35 -36 -13 -5 -61 56 -119 152 -21 35 -62 89 -92 121 -47 51
-56 67 -73 137 -19 76 -41 147 -61 189 -23 51 -22 65 3 65 59 0 196 64 253
118 l39 37 3 -30 c1 -16 5 -49 8 -73z m1827 -626 c54 -54 56 -45 -28 -103 -22
-15 -42 -30 -45 -33 -8 -8 -182 -125 -224 -150 l-39 -24 45 56 c51 62 87 149
119 283 29 123 33 127 83 68 23 -26 63 -70 89 -97z m-574 -430 c-2 -2 -49 -21
-104 -41 -55 -21 -115 -49 -133 -62 -40 -30 -72 -79 -72 -110 0 -34 -14 -28
-51 20 -18 23 -37 47 -43 52 -28 25 -76 94 -69 98 18 11 106 19 248 22 83 1
164 7 180 13 33 11 51 14 44 8z"/>
<path d="M2420 1477 c-174 -53 -236 -102 -254 -199 l-7 -38 33 20 c19 11 70
31 113 45 105 34 140 59 165 118 31 72 27 77 -50 54z"/>
<path d="M3181 3747 c2 -1 13 -9 24 -17 19 -14 19 -14 6 3 -7 9 -18 17 -24 17
-6 0 -8 -1 -6 -3z"/>
<path d="M3532 3348 c5 -18 16 -46 23 -63 18 -43 61 -163 75 -210 7 -22 30
-63 51 -92 65 -87 150 -268 196 -418 33 -105 37 -238 9 -308 -22 -58 -90 -144
-171 -217 -52 -47 -62 -61 -73 -110 -66 -283 -96 -372 -173 -523 -16 -31 -29
-63 -29 -71 0 -8 28 -44 63 -82 l63 -67 62 30 c116 58 195 53 277 -20 l46 -39
47 13 c29 9 97 14 182 14 147 0 228 -15 353 -65 l67 -28 0 893 0 893 -105 83
c-58 46 -134 99 -168 118 -96 53 -289 148 -317 156 -14 4 -29 11 -35 15 -32
22 -402 130 -447 130 -4 0 -2 -15 4 -32z"/>
<path d="M815 2033 c-118 -300 -173 -479 -212 -698 -26 -147 -26 -637 0 -780
35 -187 74 -333 133 -487 l26 -68 858 0 859 0 6 55 c7 51 5 61 -31 128 -21 39
-43 82 -50 95 -21 41 -6 62 67 95 71 31 78 39 57 61 -7 8 -46 54 -87 105 l-75
91 -55 0 c-211 0 -431 95 -595 256 -63 62 -170 202 -228 299 -20 33 -51 74
-68 90 -48 45 -79 99 -91 157 -5 29 -26 99 -46 155 -36 99 -37 102 -72 108
-96 17 -206 109 -291 243 -50 78 -78 112 -91 112 -4 0 -10 -8 -14 -17z"/>
</g>
</svg>
